<mxfile host="65bd71144e">
    <diagram id="HIP3nbAZw_EuaXWnEj3U" name="Page-1">
        <mxGraphModel dx="873" dy="346" grid="1" gridSize="10" guides="1" tooltips="1" connect="1" arrows="1" fold="1" page="1" pageScale="1" pageWidth="850" pageHeight="1100" math="0" shadow="0">
            <root>
                <mxCell id="0"/>
                <mxCell id="1" parent="0"/>
                <mxCell id="7" value="http://ics2o.mths.ca" style="swimlane;whiteSpace=wrap;html=1;" parent="1" vertex="1">
                    <mxGeometry x="40" y="40" width="760" height="480" as="geometry"/>
                </mxCell>
                <mxCell id="8" value="&lt;font style=&quot;font-size: 14px;&quot;&gt;&amp;nbsp; &amp;nbsp; &amp;nbsp; &amp;nbsp;your movie rating&lt;/font&gt;" style="rounded=0;whiteSpace=wrap;html=1;align=left;fillColor=#0050ef;fontColor=#ffffff;strokeColor=#001DBC;" vertex="1" parent="7">
                    <mxGeometry y="20" width="760" height="50" as="geometry"/>
                </mxCell>
                <mxCell id="9" value="&lt;h4 style=&quot;padding: 0px; font-family: Roboto, Helvetica, Arial, sans-serif; font-weight: 400; font-size: 24px; line-height: 32px; margin: 24px 0px 16px; text-align: start;&quot;&gt;&lt;span style=&quot;&quot;&gt;Enter your age and it will display the movie rating.&lt;/span&gt;&lt;/h4&gt;" style="text;html=1;strokeColor=none;fillColor=none;align=center;verticalAlign=middle;whiteSpace=wrap;rounded=0;fontColor=#000000;labelBackgroundColor=none;labelBorderColor=none;" vertex="1" parent="7">
                    <mxGeometry x="-20" y="90" width="590" height="30" as="geometry"/>
                </mxCell>
                <mxCell id="10" value="enter your age" style="rounded=0;whiteSpace=wrap;html=1;labelBackgroundColor=none;labelBorderColor=none;fontSize=19;fontColor=#000000;fillColor=none;" vertex="1" parent="7">
                    <mxGeometry x="20" y="140" width="260" height="30" as="geometry"/>
                </mxCell>
                <mxCell id="11" value="submit" style="rounded=1;whiteSpace=wrap;html=1;labelBackgroundColor=none;labelBorderColor=none;fontSize=19;fontColor=#ffffff;fillColor=#d80073;strokeColor=#A50040;" vertex="1" parent="7">
                    <mxGeometry x="290" y="140" width="120" height="30" as="geometry"/>
                </mxCell>
                <mxCell id="12" value="your movie rating is ~~~~" style="rounded=1;whiteSpace=wrap;html=1;labelBackgroundColor=none;labelBorderColor=none;fontSize=19;fontColor=#000000;fillColor=none;" vertex="1" parent="7">
                    <mxGeometry x="20" y="200" width="400" height="60" as="geometry"/>
                </mxCell>
                <mxCell id="15" value="Image" style="rounded=0;whiteSpace=wrap;html=1;labelBackgroundColor=none;labelBorderColor=none;fontSize=19;fontColor=#000000;fillColor=default;" vertex="1" parent="7">
                    <mxGeometry x="560" y="80" width="180" height="360" as="geometry"/>
                </mxCell>
            </root>
        </mxGraphModel>
    </diagram>
</mxfile>